<?xml version="1.0" encoding="UTF-8"?>
<svg version="1.1" xmlns="http://www.w3.org/2000/svg" viewBox="441 507 238 239" width="512" height="512">
<path d="M0 0 C2.08428706 0.02393463 4.16731609 0.02049139 6.25170898 0.01391602 C17.06059633 0.05877285 17.06059633 0.05877285 22.12475586 2.33618164 C24.51792031 2.8488036 26.91413555 3.34726822 29.31225586 3.83618164 C43.81457743 7.18807745 56.12849225 15.57438631 67.12475586 25.33618164 C67.9587793 25.98071289 68.79280273 26.62524414 69.65209961 27.28930664 C86.22533959 41.00870277 97.60001924 65.15823909 99.94604492 86.16674805 C102.30582983 114.81298945 94.92439543 141.51484674 76.48657227 163.74731445 C69.868021 171.46935312 62.61800068 177.76485527 54.12475586 183.33618164 C51.88572742 184.77095522 51.88572742 184.77095522 50.12475586 186.33618164 C49.79049851 188.96243303 49.79049851 188.96243303 50.12475586 191.33618164 C54.0408216 190.80217268 56.5181452 190.13948697 60.12475586 188.33618164 C60.12475586 199.55618164 60.12475586 210.77618164 60.12475586 222.33618164 C24.48475586 222.33618164 -11.15524414 222.33618164 -47.87524414 222.33618164 C-48.20524414 219.69618164 -48.53524414 217.05618164 -48.87524414 214.33618164 C-47.21307861 214.34572876 -47.21307861 214.34572876 -45.51733398 214.35546875 C-41.33825502 214.37008652 -37.16051901 214.33819261 -32.98168945 214.29345703 C-31.18583796 214.28045525 -29.38985227 214.27945449 -27.59399414 214.29150391 C-14.7546027 214.36673472 -3.710401 213.42041349 6.26708984 204.39916992 C10.28226873 199.89038404 11.25309279 197.23968032 11.12475586 191.33618164 C8.82694032 191.21983059 8.82694032 191.21983059 6.12475586 192.33618164 C4.49240009 194.2486199 3.09926281 196.27416153 1.65600586 198.33227539 C-2.13529751 203.29385353 -6.99958715 204.93612803 -12.87524414 206.33618164 C-15.74816156 206.60937525 -18.60060661 206.63009932 -21.48510742 206.62670898 C-22.31690521 206.63342621 -23.148703 206.64014343 -24.00570679 206.64706421 C-26.73571861 206.6659531 -29.46548369 206.66996291 -32.19555664 206.67211914 C-34.1017161 206.67855036 -36.00787457 206.68527896 -37.91403198 206.69229126 C-41.89998668 206.70423898 -45.88585484 206.70797436 -49.87182617 206.70678711 C-54.9775288 206.70658336 -60.08267831 206.73395418 -65.18824959 206.76833153 C-69.12078401 206.79056515 -73.05318415 206.79462584 -76.98577499 206.79356766 C-78.86843661 206.7959263 -80.75110177 206.80476465 -82.63370132 206.82023239 C-85.2642539 206.83983321 -87.8935978 206.83407938 -90.52416992 206.82202148 C-91.29935974 206.8332605 -92.07454956 206.84449951 -92.87322998 206.8560791 C-96.5875765 206.81282442 -98.68052684 206.46154565 -101.83468628 204.43081665 C-105.0840435 201.0953477 -105.43435567 198.44381253 -105.44165039 193.90649414 C-104.4934562 189.60365429 -101.51472716 186.93638019 -98.66040039 183.69946289 C-96.54548912 181.29588015 -96.54548912 181.29588015 -96.31274414 177.39868164 C-96.80634789 174.31013066 -96.80634789 174.31013066 -97.87524414 171.33618164 C-98.86524414 171.00618164 -99.85524414 170.67618164 -100.87524414 170.33618164 C-100.54524414 169.67618164 -100.21524414 169.01618164 -99.87524414 168.33618164 C-99.51357617 163.46462177 -99.51357617 163.46462177 -101.12524414 158.96118164 C-102.99267192 156.96512044 -102.99267192 156.96512044 -106.87524414 156.33618164 C-106.87524414 150.39618164 -106.87524414 144.45618164 -106.87524414 138.33618164 C-105.22524414 138.99618164 -103.57524414 139.65618164 -101.87524414 140.33618164 C-99.88281164 140.7121123 -97.88337674 141.05597709 -95.87524414 141.33618164 C-95.54524414 139.68618164 -95.21524414 138.03618164 -94.87524414 136.33618164 C-95.94774414 135.69680664 -97.02024414 135.05743164 -98.12524414 134.39868164 C-99.03016602 133.85920898 -99.03016602 133.85920898 -99.95336914 133.30883789 C-104.17885134 131.17033166 -108.44157223 131.07725297 -113.12524414 130.77368164 C-114.38852539 130.68989258 -115.65180664 130.60610352 -116.95336914 130.51977539 C-117.91758789 130.45918945 -118.88180664 130.39860352 -119.87524414 130.33618164 C-119.27095089 126.12696656 -116.85018788 123.00610166 -114.50024414 119.58618164 C-114.0605127 118.93657471 -113.62078125 118.28696777 -113.16772461 117.61767578 C-111.74386363 115.51899798 -110.31074332 113.42691365 -108.87524414 111.33618164 C-108.38540039 110.62123535 -107.89555664 109.90628906 -107.39086914 109.16967773 C-105.04026326 105.74042212 -102.68391004 102.31525632 -100.32055664 98.89477539 C-99.50521673 97.7087395 -98.69010228 96.52254858 -97.87524414 95.33618164 C-97.13016602 94.2546582 -96.38508789 93.17313477 -95.61743164 92.05883789 C-92.5766723 87.30679919 -92.70164364 83.80459756 -92.87524414 78.33618164 C-93.37024414 77.34618164 -93.37024414 77.34618164 -93.87524414 76.33618164 C-93.87524414 56.15763544 -78.04884729 38.52921714 -64.62915039 25.08618164 C-47.36144389 8.86404269 -23.50782899 -0.28904219 0 0 Z " fill="#0C0B09" transform="translate(569.875244140625,515.663818359375)"></path>
<path d="M0 0 C4.55555556 0.55555556 4.55555556 0.55555556 6 2 C6.07258946 4.18639453 6.08373783 6.37500389 6.0625 8.5625 C6.05347656 9.76003906 6.04445313 10.95757813 6.03515625 12.19140625 C6.02355469 13.11824219 6.01195312 14.04507813 6 15 C8.64 15 11.28 15 14 15 C13.97679687 14.08476563 13.95359375 13.16953125 13.9296875 12.2265625 C13.91164063 11.03804687 13.89359375 9.84953125 13.875 8.625 C13.85179687 7.44164062 13.82859375 6.25828125 13.8046875 5.0390625 C14 2 14 2 16 0 C20.55555556 0.55555556 20.55555556 0.55555556 22 2 C22.07258946 4.18639453 22.08373783 6.37500389 22.0625 8.5625 C22.05347656 9.76003906 22.04445313 10.95757813 22.03515625 12.19140625 C22.02355469 13.11824219 22.01195312 14.04507813 22 15 C24.64 15 27.28 15 30 15 C30 10.38 30 5.76 30 1 C31.98 0.67 33.96 0.34 36 0 C38 2 38 2 38.1953125 5.0390625 C38.17210937 6.22242188 38.14890625 7.40578125 38.125 8.625 C38.10695313 9.81351563 38.08890625 11.00203125 38.0703125 12.2265625 C38.04710937 13.14179687 38.02390625 14.05703125 38 15 C40.64 15 43.28 15 46 15 C45.98839844 14.00097656 45.97679687 13.00195312 45.96484375 11.97265625 C45.95582031 10.68230469 45.94679688 9.39195312 45.9375 8.0625 C45.92589844 6.77472656 45.91429687 5.48695313 45.90234375 4.16015625 C46 1 46 1 47 0 C49.4375 -0.1875 49.4375 -0.1875 52 0 C54 2 54 2 54.1953125 5.2578125 C54.17210937 6.53398438 54.14890625 7.81015625 54.125 9.125 C54.10695313 10.40632812 54.08890625 11.68765625 54.0703125 13.0078125 C54.04710937 13.99523437 54.02390625 14.98265625 54 16 C56.64 16 59.28 16 62 16 C62 11.05 62 6.1 62 1 C64.475 0.505 64.475 0.505 67 0 C69 2 69 2 69.1953125 5.2578125 C69.17210937 6.53398438 69.14890625 7.81015625 69.125 9.125 C69.10695313 10.40632812 69.08890625 11.68765625 69.0703125 13.0078125 C69.04710937 13.99523437 69.02390625 14.98265625 69 16 C69.9384375 16.24621094 70.876875 16.49242187 71.84375 16.74609375 C75.36896683 18.14658212 75.8460977 18.80785654 77.5 22.0625 C79.64967855 25.26968171 80.55359409 25.91183993 84.421875 26.67578125 C86.92970868 26.80629096 89.44190329 26.87248544 91.953125 26.8671875 C95 27 95 27 97 29 C96.44444444 33.55555556 96.44444444 33.55555556 95 35 C92.64686445 35.07271741 90.29166332 35.08370868 87.9375 35.0625 C86.00197266 35.04896484 86.00197266 35.04896484 84.02734375 35.03515625 C83.02832031 35.02355469 82.02929688 35.01195312 81 35 C81 37.64 81 40.28 81 43 C81.98742187 42.97679687 82.97484375 42.95359375 83.9921875 42.9296875 C85.27351562 42.91164063 86.55484375 42.89359375 87.875 42.875 C89.15117188 42.85179687 90.42734375 42.82859375 91.7421875 42.8046875 C95 43 95 43 97 45 C96.44444444 49.55555556 96.44444444 49.55555556 95 51 C92.64686445 51.07271741 90.29166332 51.08370868 87.9375 51.0625 C86.00197266 51.04896484 86.00197266 51.04896484 84.02734375 51.03515625 C83.02832031 51.02355469 82.02929688 51.01195312 81 51 C81 53.64 81 56.28 81 59 C82.60681641 58.98259766 82.60681641 58.98259766 84.24609375 58.96484375 C85.64322743 58.95546701 87.04036299 58.94636669 88.4375 58.9375 C89.14455078 58.92912109 89.85160156 58.92074219 90.58007812 58.91210938 C92.38693559 58.90346412 94.19387603 58.94779989 96 59 C97 60 97 60 97.125 62.5 C97 65 97 65 96 66 C93.65012738 66.23527773 91.29443961 66.41386417 88.9375 66.5625 C87.64714844 66.64628906 86.35679687 66.73007812 85.02734375 66.81640625 C84.02832031 66.87699219 83.02929688 66.93757812 82 67 C81.67 69.64 81.34 72.28 81 75 C85.95 75 90.9 75 96 75 C97 80 97 80 96 82 C91.05 82 86.1 82 81 82 C81 84.97 81 87.94 81 91 C85.95 91 90.9 91 96 91 C96.33 92.65 96.66 94.3 97 96 C94.15201478 98.84798522 92.08930345 98.16689551 88.125 98.1875 C83.34833689 98.2205722 83.34833689 98.2205722 79.43359375 100.4765625 C78.52844777 102.30688937 78.52844777 102.30688937 77.859375 104.26953125 C77 106 77 106 73.3125 107.5 C71.37416267 108.26974481 71.37416267 108.26974481 70 110 C69.28742552 113.96506165 69.10448736 117.74394408 69.0703125 121.76171875 C69 125 69 125 68 126 C65.5 126.125 65.5 126.125 63 126 C62 125 62 125 61.90234375 121.62109375 C61.90901631 120.22652923 61.92097468 118.83198257 61.9375 117.4375 C61.94201172 116.72658203 61.94652344 116.01566406 61.95117188 115.28320312 C61.96299136 113.52209987 61.98092737 111.76103964 62 110 C59.36 110 56.72 110 54 110 C54.02320313 110.98742187 54.04640625 111.97484375 54.0703125 112.9921875 C54.08835937 114.27351562 54.10640625 115.55484375 54.125 116.875 C54.14820313 118.15117188 54.17140625 119.42734375 54.1953125 120.7421875 C54 124 54 124 52 126 C49.4375 126.1875 49.4375 126.1875 47 126 C46 125 46 125 45.90234375 121.62109375 C45.90901631 120.22652923 45.92097468 118.83198257 45.9375 117.4375 C45.94201172 116.72658203 45.94652344 116.01566406 45.95117188 115.28320312 C45.96299136 113.52209987 45.98092737 111.76103964 46 110 C43.36 110 40.72 110 38 110 C38.02320313 110.98742187 38.04640625 111.97484375 38.0703125 112.9921875 C38.08835937 114.27351562 38.10640625 115.55484375 38.125 116.875 C38.14820313 118.15117188 38.17140625 119.42734375 38.1953125 120.7421875 C38 124 38 124 36 126 C34.02 125.67 32.04 125.34 30 125 C30 120.05 30 115.1 30 110 C27.36 110 24.72 110 22 110 C22 114.95 22 119.9 22 125 C19.03 125.495 19.03 125.495 16 126 C15 125 15 125 14.90234375 121.62109375 C14.90901631 120.22652923 14.92097468 118.83198257 14.9375 117.4375 C14.94201172 116.72658203 14.94652344 116.01566406 14.95117188 115.28320312 C14.96299136 113.52209987 14.98092737 111.76103964 15 110 C12.03 110 9.06 110 6 110 C6 114.95 6 119.9 6 125 C3.03 125.495 3.03 125.495 0 126 C-2 124 -2 124 -2.1953125 120.5234375 C-2.18201493 119.14049032 -2.15816232 117.75761346 -2.125 116.375 C-2.11597656 115.66859375 -2.10695313 114.9621875 -2.09765625 114.234375 C-2.07407603 112.48943902 -2.03820461 110.74467705 -2 109 C-2.60585938 108.86980469 -3.21171875 108.73960937 -3.8359375 108.60546875 C-6.96359151 107.7304031 -8.68245067 106.25656119 -11 104 C-11.72322212 102.01974895 -12.39751442 100.02026126 -13 98 C-14.05960938 98.02320313 -15.11921875 98.04640625 -16.2109375 98.0703125 C-17.5989513 98.08906944 -18.9869727 98.10726972 -20.375 98.125 C-21.07367187 98.14175781 -21.77234375 98.15851563 -22.4921875 98.17578125 C-24.32897486 98.19344267 -26.16601963 98.10303261 -28 98 C-28.66 97.34 -29.32 96.68 -30 96 C-29.46428571 92.46428571 -29.46428571 92.46428571 -28 91 C-25.65012738 90.76472227 -23.29443961 90.58613583 -20.9375 90.4375 C-19.64714844 90.35371094 -18.35679687 90.26992188 -17.02734375 90.18359375 C-16.02832031 90.12300781 -15.02929688 90.06242188 -14 90 C-14 87.69 -14 85.38 -14 83 C-14.99902344 82.93941406 -15.99804688 82.87882813 -17.02734375 82.81640625 C-18.96287109 82.69072266 -18.96287109 82.69072266 -20.9375 82.5625 C-22.86916016 82.44068359 -22.86916016 82.44068359 -24.83984375 82.31640625 C-28 82 -28 82 -29 81 C-29.125 78.5 -29.125 78.5 -29 76 C-27.05909174 74.05909174 -23.52706098 74.60080565 -20.9375 74.4375 C-19.64714844 74.35371094 -18.35679687 74.26992188 -17.02734375 74.18359375 C-16.02832031 74.12300781 -15.02929688 74.06242188 -14 74 C-14 71.69 -14 69.38 -14 67 C-14.99902344 66.93941406 -15.99804688 66.87882813 -17.02734375 66.81640625 C-18.96287109 66.69072266 -18.96287109 66.69072266 -20.9375 66.5625 C-22.86916016 66.44068359 -22.86916016 66.44068359 -24.83984375 66.31640625 C-28 66 -28 66 -29 65 C-29.125 62.5 -29.125 62.5 -29 60 C-28 59 -28 59 -24.62109375 58.90234375 C-23.22652923 58.90901631 -21.83198257 58.92097468 -20.4375 58.9375 C-19.72658203 58.94201172 -19.01566406 58.94652344 -18.28320312 58.95117188 C-16.52209987 58.96299136 -14.76103964 58.98092737 -13 59 C-13 56.36 -13 53.72 -13 51 C-14.60681641 51.01740234 -14.60681641 51.01740234 -16.24609375 51.03515625 C-17.64322743 51.04453299 -19.04036299 51.05363331 -20.4375 51.0625 C-21.14455078 51.07087891 -21.85160156 51.07925781 -22.58007812 51.08789062 C-24.38693559 51.09653588 -26.19387603 51.05220011 -28 51 C-29 50 -29 50 -29.125 47 C-29 44 -29 44 -28 43 C-25.46950598 42.92686433 -22.96695163 42.90752473 -20.4375 42.9375 C-19.72658203 42.94201172 -19.01566406 42.94652344 -18.28320312 42.95117188 C-16.52209987 42.96299136 -14.76103964 42.98092737 -13 43 C-13 40.36 -13 37.72 -13 35 C-14.60681641 35.01740234 -14.60681641 35.01740234 -16.24609375 35.03515625 C-17.64322743 35.04453299 -19.04036299 35.05363331 -20.4375 35.0625 C-21.14455078 35.07087891 -21.85160156 35.07925781 -22.58007812 35.08789062 C-24.38693559 35.09653588 -26.19387603 35.05220011 -28 35 C-29 34 -29 34 -29.1875 31.5625 C-29 29 -29 29 -27 27 C-23.7421875 26.8046875 -23.7421875 26.8046875 -19.875 26.875 C-17.95300781 26.90207031 -17.95300781 26.90207031 -15.9921875 26.9296875 C-14.51105469 26.96449219 -14.51105469 26.96449219 -13 27 C-12.88527344 26.39414062 -12.77054688 25.78828125 -12.65234375 25.1640625 C-11.67285585 21.91474335 -9.44904827 20.26984962 -7 18 C-6.34 17.34 -5.68 16.68 -5 16 C-4.01 16 -3.02 16 -2 16 C-2.02320313 15.01257813 -2.04640625 14.02515625 -2.0703125 13.0078125 C-2.08835937 11.72648438 -2.10640625 10.44515625 -2.125 9.125 C-2.14820313 7.84882812 -2.17140625 6.57265625 -2.1953125 5.2578125 C-2 2 -2 2 0 0 Z " fill="#100E0A" transform="translate(541,548)"></path>
<path d="M0 0 C0.89976562 0.28875 1.79953125 0.5775 2.7265625 0.875 C15.22708826 5.43545239 26.78817479 12.56115656 37 21 C38.00933594 21.83273437 39.01867187 22.66546875 40.05859375 23.5234375 C59.36789764 40.02651314 72.52864705 65.33436006 74.72265625 90.58984375 C75.51072138 101.82669569 75.77861802 113.01645757 73 124 C72.77401123 124.96558838 72.77401123 124.96558838 72.54345703 125.95068359 C67.50733974 147.2997572 56.81105091 169.20680773 39.296875 183.15234375 C36.92933011 184.79416154 36.92933011 184.79416154 36 187 C35.89754499 188.40341617 35.85418371 189.81140516 35.84228516 191.21850586 C35.83202301 192.08958481 35.82176086 192.96066376 35.81118774 193.85813904 C35.80388641 194.80085159 35.79658508 195.74356415 35.7890625 196.71484375 C35.76099985 198.69987812 35.73233543 200.68490406 35.703125 202.66992188 C35.66180294 205.808185 35.62492636 208.94628967 35.59863281 212.0847168 C35.57109386 215.10759199 35.52522809 218.12974491 35.4765625 221.15234375 C35.47330963 222.09303207 35.47005676 223.0337204 35.46670532 224.00291443 C35.45013885 224.87714554 35.43357239 225.75137665 35.41650391 226.65209961 C35.40437363 227.80554115 35.40437363 227.80554115 35.39199829 228.98228455 C34.88379481 231.59813785 34.0816689 232.36025793 32 234 C29.81200409 234.37752342 29.81200409 234.37752342 27.21765137 234.38095093 C26.23340683 234.3894104 25.24916229 234.39786987 24.23509216 234.40658569 C23.15655472 234.400513 22.07801727 234.39444031 20.96679688 234.38818359 C19.26161644 234.39606903 19.26161644 234.39606903 17.52198792 234.40411377 C13.75410329 234.41734694 9.98663912 234.40856361 6.21875 234.3984375 C3.60705484 234.40045727 0.99536022 234.4033679 -1.61633301 234.40713501 C-7.09404072 234.41259399 -12.57162711 234.4053973 -18.04931641 234.39111328 C-24.38360138 234.37478636 -30.71759668 234.38007478 -37.05187464 234.3965925 C-43.14358523 234.4118423 -49.23516731 234.41023401 -55.32688904 234.4014473 C-57.92012065 234.3994418 -60.51335962 234.40191673 -63.10658264 234.40888596 C-66.72685511 234.41647945 -70.34656635 234.40492499 -73.96679688 234.38818359 C-75.58460304 234.39729263 -75.58460304 234.39729263 -77.23509216 234.40658569 C-78.2193367 234.39812622 -79.20358124 234.38966675 -80.21765137 234.38095093 C-81.07378777 234.37981985 -81.92992416 234.37868877 -82.81200409 234.37752342 C-85.49703415 233.91424023 -86.35382455 233.13213823 -88 231 C-88.87890625 228.58984375 -88.87890625 228.58984375 -89.5625 225.9375 C-90.5234809 222.05693941 -90.5234809 222.05693941 -93 219 C-96.01206648 218.80254315 -98.93989762 218.72310015 -101.953125 218.7265625 C-103.78776642 218.70626496 -105.62240179 218.68541402 -107.45703125 218.6640625 C-110.35145155 218.64149966 -113.24563265 218.62500885 -116.14013672 218.61914062 C-118.93240748 218.60959277 -121.72359743 218.57577743 -124.515625 218.5390625 C-125.37520813 218.54410797 -126.23479126 218.54915344 -127.12042236 218.55435181 C-133.39110669 218.45217058 -137.05159349 216.86436642 -141.64453125 212.40234375 C-145.93638502 207.019584 -146.50849143 202.82794998 -146.4921875 196.078125 C-145.79441979 191.71430789 -143.79392194 189.6936386 -140.69140625 186.69140625 C-138.67595581 184.67595581 -137.76864409 182.73295676 -137 180 C-137.928125 179.814375 -137.928125 179.814375 -138.875 179.625 C-141 179 -141 179 -143 177 C-143.1875 173.4375 -143.1875 173.4375 -143 170 C-142.67 169.67 -142.34 169.34 -142 169 C-143.47533203 168.07960938 -143.47533203 168.07960938 -144.98046875 167.140625 C-147.09865308 165.37536765 -147.90426949 164.45396364 -148.47900391 161.72851562 C-148.55425537 159.04813027 -148.47407792 156.42649078 -148.3125 153.75 C-148.24269068 151.93241918 -148.17610351 150.11471073 -148.11328125 148.296875 C-148.06985596 147.49604492 -148.02643066 146.69521484 -147.98168945 145.87011719 C-147.78190169 143.98471502 -147.78190169 143.98471502 -149 143 C-150.43530239 142.86898863 -151.87358964 142.76992531 -153.3125 142.6875 C-156.4298819 142.35491308 -157.86455849 142.08588974 -160.5625 140.375 C-162.61188746 136.98905551 -162.41117337 134.93209487 -162 131 C-160.6557492 128.12123522 -158.85378838 125.63458373 -157 123.0625 C-156.47833252 122.2996167 -155.95666504 121.5367334 -155.41918945 120.75073242 C-152.23692032 116.10512791 -148.93906305 111.55344118 -145.60546875 107.015625 C-136.17686011 95.12971268 -136.17686011 95.12971268 -133.8125 80.875 C-134.04324219 79.71484375 -134.27398437 78.5546875 -134.51171875 77.359375 C-135.43069709 71.03680399 -132.66422753 65.61820249 -130 60 C-129.6714502 59.30551758 -129.34290039 58.61103516 -129.00439453 57.89550781 C-124.61922885 48.81900044 -119.88191988 40.44221779 -113 33 C-112.11699219 32.03707031 -111.23398437 31.07414063 -110.32421875 30.08203125 C-82.34560527 0.44678934 -39.44206908 -12.76327629 0 0 Z M-65 9 C-65.98758301 9.39348633 -65.98758301 9.39348633 -66.99511719 9.79492188 C-81.30678009 15.63156092 -93.06531863 24.22086175 -104 35 C-104.73089844 35.71800781 -105.46179688 36.43601562 -106.21484375 37.17578125 C-115.6026254 47.04689423 -126.31332078 63.42513994 -127.21484375 77.30859375 C-127.17158871 79.96900884 -127.17158871 79.96900884 -126 82 C-125.1263216 92.13466948 -129.83196053 97.97911813 -135.71484375 105.86328125 C-138.74732636 110.02581721 -141.58106313 114.30763879 -144.41064453 118.60961914 C-144.80493652 119.20766357 -145.19922852 119.80570801 -145.60546875 120.421875 C-145.9926709 121.01033203 -146.37987305 121.59878906 -146.77880859 122.20507812 C-148.06813186 124.10014103 -149.43059237 125.92842485 -150.80078125 127.765625 C-153.28114135 130.76160035 -153.28114135 130.76160035 -153 134 C-152.10539062 134.02578125 -151.21078125 134.0515625 -150.2890625 134.078125 C-134.65445026 134.81151832 -134.65445026 134.81151832 -129 139 C-128.23828125 141.640625 -128.23828125 141.640625 -128 144 C-130.1875 144.6875 -130.1875 144.6875 -133 145 C-135.6875 143.5625 -135.6875 143.5625 -138 142 C-138.66 142 -139.32 142 -140 142 C-140 147.94 -140 153.88 -140 160 C-138.35 160.66 -136.7 161.32 -135 162 C-132.54875322 165.67687017 -132.84504543 167.66127217 -133 172 C-133 172.99 -133 173.98 -133 175 C-132.34 175 -131.68 175 -131 175 C-129.7162663 178.8512011 -129.41766679 180.92366754 -130 185 C-131.78515625 187.36328125 -131.78515625 187.36328125 -134 189.875 C-136.85707847 193.20319248 -138.60179615 195.3589742 -138.75 199.8125 C-138.36462414 203.84467339 -136.98082133 206.1945211 -134 209 C-130.86032091 210.56983955 -127.50103701 210.16511071 -124.05297852 210.17700195 C-122.82083366 210.18685875 -122.82083366 210.18685875 -121.563797 210.19691467 C-118.83549917 210.21667896 -116.10725668 210.22832201 -113.37890625 210.23828125 C-111.97905141 210.24439454 -111.97905141 210.24439454 -110.55091667 210.25063133 C-105.60401505 210.27151313 -100.65714127 210.28580131 -95.71020508 210.29516602 C-90.61955203 210.30618803 -85.52934124 210.34053288 -80.43884373 210.38033772 C-76.51036313 210.40660221 -72.58198587 210.41486693 -68.65342522 210.41844749 C-66.77850319 210.42329421 -64.90358518 210.43485303 -63.02874947 210.45348549 C-46.80446315 211.02422153 -46.80446315 211.02422153 -32.78639221 203.95674133 C-30.20873424 201.14158884 -28.11584245 198.17376367 -26 195 C-24.68 195 -23.36 195 -22 195 C-21.37562925 199.1624717 -22.05504988 201.61130881 -24.375 205 C-28.10108373 209.6199898 -32.73545073 212.38024014 -38 215 C-38.68980957 215.34675781 -39.37961914 215.69351563 -40.09033203 216.05078125 C-44.08642325 217.35442302 -47.83993925 217.35570274 -52.01953125 217.4140625 C-53.30738777 217.44311172 -53.30738777 217.44311172 -54.6212616 217.4727478 C-57.35157474 217.53231556 -60.08193057 217.57883734 -62.8125 217.625 C-64.66863773 217.66320079 -66.52475812 217.70225375 -68.38085938 217.7421875 C-72.92043144 217.83799827 -77.46008646 217.92211321 -82 218 C-81.67 220.64 -81.34 223.28 -81 226 C-45.36 226 -9.72 226 27 226 C27 214.78 27 203.56 27 192 C25.02 192.99 23.04 193.98 21 195 C19.68 195 18.36 195 17 195 C16.54296875 192.8515625 16.54296875 192.8515625 17 190 C19.1722434 187.76601325 21.74052645 186.11823291 24.3125 184.375 C46.66076419 168.37673896 60.80666082 146.44216742 66.3125 119.375 C70.07079891 92.95952767 64.43910118 66.22953 48.5 44.625 C47.03227728 42.72462767 45.52887676 40.85152933 44 39 C43.48566406 38.37254883 42.97132813 37.74509766 42.44140625 37.09863281 C38.37070216 32.26871011 34.04515383 28.28957521 29 24.5 C27.89023804 23.66480835 27.89023804 23.66480835 26.75805664 22.81274414 C15.95444742 14.85285814 5.62237159 9.55500563 -7.5390625 6.7890625 C-11 6 -11 6 -13.30151367 4.97387695 C-18.81029915 2.98577008 -24.88684183 3.55987381 -30.6875 3.5625 C-31.38496338 3.56176483 -32.08242676 3.56102966 -32.80102539 3.56027222 C-44.17382538 3.591827 -54.40409687 4.66702287 -65 9 Z " fill="#EAB64F" transform="translate(603,512)"></path>
<path d="M0 0 C4.55555556 0.55555556 4.55555556 0.55555556 6 2 C6.07258946 4.18639453 6.08373783 6.37500389 6.0625 8.5625 C6.05347656 9.76003906 6.04445313 10.95757813 6.03515625 12.19140625 C6.02355469 13.11824219 6.01195312 14.04507813 6 15 C8.64 15 11.28 15 14 15 C13.97679687 14.08476563 13.95359375 13.16953125 13.9296875 12.2265625 C13.91164063 11.03804687 13.89359375 9.84953125 13.875 8.625 C13.85179687 7.44164062 13.82859375 6.25828125 13.8046875 5.0390625 C14 2 14 2 16 0 C20.55555556 0.55555556 20.55555556 0.55555556 22 2 C22.07258946 4.18639453 22.08373783 6.37500389 22.0625 8.5625 C22.05347656 9.76003906 22.04445313 10.95757813 22.03515625 12.19140625 C22.02355469 13.11824219 22.01195312 14.04507813 22 15 C24.64 15 27.28 15 30 15 C30 10.38 30 5.76 30 1 C31.98 0.67 33.96 0.34 36 0 C38 2 38 2 38.1953125 5.0390625 C38.17210937 6.22242188 38.14890625 7.40578125 38.125 8.625 C38.10695313 9.81351563 38.08890625 11.00203125 38.0703125 12.2265625 C38.04710937 13.14179687 38.02390625 14.05703125 38 15 C40.64 15 43.28 15 46 15 C45.98839844 14.00097656 45.97679687 13.00195312 45.96484375 11.97265625 C45.95582031 10.68230469 45.94679688 9.39195312 45.9375 8.0625 C45.92589844 6.77472656 45.91429687 5.48695313 45.90234375 4.16015625 C46 1 46 1 47 0 C49.4375 -0.1875 49.4375 -0.1875 52 0 C54 2 54 2 54.1953125 5.2578125 C54.17210937 6.53398438 54.14890625 7.81015625 54.125 9.125 C54.10695313 10.40632812 54.08890625 11.68765625 54.0703125 13.0078125 C54.04710937 13.99523437 54.02390625 14.98265625 54 16 C56.64 16 59.28 16 62 16 C62 11.05 62 6.1 62 1 C64.475 0.505 64.475 0.505 67 0 C69 2 69 2 69.1953125 5.2578125 C69.17210937 6.53398438 69.14890625 7.81015625 69.125 9.125 C69.10695313 10.40632812 69.08890625 11.68765625 69.0703125 13.0078125 C69.04710937 13.99523437 69.02390625 14.98265625 69 16 C69.9384375 16.24621094 70.876875 16.49242187 71.84375 16.74609375 C75.36896683 18.14658212 75.8460977 18.80785654 77.5 22.0625 C79.64967855 25.26968171 80.55359409 25.91183993 84.421875 26.67578125 C86.92970868 26.80629096 89.44190329 26.87248544 91.953125 26.8671875 C95 27 95 27 97 29 C96.44444444 33.55555556 96.44444444 33.55555556 95 35 C92.64686445 35.07271741 90.29166332 35.08370868 87.9375 35.0625 C86.00197266 35.04896484 86.00197266 35.04896484 84.02734375 35.03515625 C83.02832031 35.02355469 82.02929688 35.01195312 81 35 C81 37.64 81 40.28 81 43 C81.98742187 42.97679687 82.97484375 42.95359375 83.9921875 42.9296875 C85.27351562 42.91164063 86.55484375 42.89359375 87.875 42.875 C89.15117188 42.85179687 90.42734375 42.82859375 91.7421875 42.8046875 C95 43 95 43 97 45 C96.44444444 49.55555556 96.44444444 49.55555556 95 51 C92.64686445 51.07271741 90.29166332 51.08370868 87.9375 51.0625 C86.00197266 51.04896484 86.00197266 51.04896484 84.02734375 51.03515625 C83.02832031 51.02355469 82.02929688 51.01195312 81 51 C81 53.64 81 56.28 81 59 C82.60681641 58.98259766 82.60681641 58.98259766 84.24609375 58.96484375 C85.64322743 58.95546701 87.04036299 58.94636669 88.4375 58.9375 C89.14455078 58.92912109 89.85160156 58.92074219 90.58007812 58.91210938 C92.38693559 58.90346412 94.19387603 58.94779989 96 59 C97 60 97 60 97.125 62.5 C97 65 97 65 96 66 C93.65012738 66.23527773 91.29443961 66.41386417 88.9375 66.5625 C87.64714844 66.64628906 86.35679687 66.73007812 85.02734375 66.81640625 C84.02832031 66.87699219 83.02929688 66.93757812 82 67 C81.67 69.64 81.34 72.28 81 75 C85.95 75 90.9 75 96 75 C97 80 97 80 96 82 C91.05 82 86.1 82 81 82 C81 84.97 81 87.94 81 91 C85.95 91 90.9 91 96 91 C96.33 92.65 96.66 94.3 97 96 C94.15201478 98.84798522 92.08930345 98.16689551 88.125 98.1875 C83.34833689 98.2205722 83.34833689 98.2205722 79.43359375 100.4765625 C78.52844777 102.30688937 78.52844777 102.30688937 77.859375 104.26953125 C77 106 77 106 73.3125 107.5 C71.37416267 108.26974481 71.37416267 108.26974481 70 110 C69.28742552 113.96506165 69.10448736 117.74394408 69.0703125 121.76171875 C69 125 69 125 68 126 C65.5 126.125 65.5 126.125 63 126 C62 125 62 125 61.90234375 121.62109375 C61.90901631 120.22652923 61.92097468 118.83198257 61.9375 117.4375 C61.94201172 116.72658203 61.94652344 116.01566406 61.95117188 115.28320312 C61.96299136 113.52209987 61.98092737 111.76103964 62 110 C59.36 110 56.72 110 54 110 C54.02320313 110.98742187 54.04640625 111.97484375 54.0703125 112.9921875 C54.08835937 114.27351562 54.10640625 115.55484375 54.125 116.875 C54.14820313 118.15117188 54.17140625 119.42734375 54.1953125 120.7421875 C54 124 54 124 52 126 C49.4375 126.1875 49.4375 126.1875 47 126 C46 125 46 125 45.90234375 121.62109375 C45.90901631 120.22652923 45.92097468 118.83198257 45.9375 117.4375 C45.94201172 116.72658203 45.94652344 116.01566406 45.95117188 115.28320312 C45.96299136 113.52209987 45.98092737 111.76103964 46 110 C43.36 110 40.72 110 38 110 C38.02320313 110.98742187 38.04640625 111.97484375 38.0703125 112.9921875 C38.08835937 114.27351562 38.10640625 115.55484375 38.125 116.875 C38.14820313 118.15117188 38.17140625 119.42734375 38.1953125 120.7421875 C38 124 38 124 36 126 C34.02 125.67 32.04 125.34 30 125 C30 120.05 30 115.1 30 110 C27.36 110 24.72 110 22 110 C22 114.95 22 119.9 22 125 C19.03 125.495 19.03 125.495 16 126 C15 125 15 125 14.90234375 121.62109375 C14.90901631 120.22652923 14.92097468 118.83198257 14.9375 117.4375 C14.94201172 116.72658203 14.94652344 116.01566406 14.95117188 115.28320312 C14.96299136 113.52209987 14.98092737 111.76103964 15 110 C12.03 110 9.06 110 6 110 C6 114.95 6 119.9 6 125 C3.03 125.495 3.03 125.495 0 126 C-2 124 -2 124 -2.1953125 120.5234375 C-2.18201493 119.14049032 -2.15816232 117.75761346 -2.125 116.375 C-2.11597656 115.66859375 -2.10695313 114.9621875 -2.09765625 114.234375 C-2.07407603 112.48943902 -2.03820461 110.74467705 -2 109 C-2.60585938 108.86980469 -3.21171875 108.73960937 -3.8359375 108.60546875 C-6.96359151 107.7304031 -8.68245067 106.25656119 -11 104 C-11.72322212 102.01974895 -12.39751442 100.02026126 -13 98 C-14.05960938 98.02320313 -15.11921875 98.04640625 -16.2109375 98.0703125 C-17.5989513 98.08906944 -18.9869727 98.10726972 -20.375 98.125 C-21.07367187 98.14175781 -21.77234375 98.15851563 -22.4921875 98.17578125 C-24.32897486 98.19344267 -26.16601963 98.10303261 -28 98 C-28.66 97.34 -29.32 96.68 -30 96 C-29.46428571 92.46428571 -29.46428571 92.46428571 -28 91 C-25.65012738 90.76472227 -23.29443961 90.58613583 -20.9375 90.4375 C-19.64714844 90.35371094 -18.35679687 90.26992188 -17.02734375 90.18359375 C-16.02832031 90.12300781 -15.02929688 90.06242188 -14 90 C-14 87.69 -14 85.38 -14 83 C-14.99902344 82.93941406 -15.99804688 82.87882813 -17.02734375 82.81640625 C-18.96287109 82.69072266 -18.96287109 82.69072266 -20.9375 82.5625 C-22.86916016 82.44068359 -22.86916016 82.44068359 -24.83984375 82.31640625 C-28 82 -28 82 -29 81 C-29.125 78.5 -29.125 78.5 -29 76 C-27.05909174 74.05909174 -23.52706098 74.60080565 -20.9375 74.4375 C-19.64714844 74.35371094 -18.35679687 74.26992188 -17.02734375 74.18359375 C-16.02832031 74.12300781 -15.02929688 74.06242188 -14 74 C-14 71.69 -14 69.38 -14 67 C-14.99902344 66.93941406 -15.99804688 66.87882813 -17.02734375 66.81640625 C-18.96287109 66.69072266 -18.96287109 66.69072266 -20.9375 66.5625 C-22.86916016 66.44068359 -22.86916016 66.44068359 -24.83984375 66.31640625 C-28 66 -28 66 -29 65 C-29.125 62.5 -29.125 62.5 -29 60 C-28 59 -28 59 -24.62109375 58.90234375 C-23.22652923 58.90901631 -21.83198257 58.92097468 -20.4375 58.9375 C-19.72658203 58.94201172 -19.01566406 58.94652344 -18.28320312 58.95117188 C-16.52209987 58.96299136 -14.76103964 58.98092737 -13 59 C-13 56.36 -13 53.72 -13 51 C-14.60681641 51.01740234 -14.60681641 51.01740234 -16.24609375 51.03515625 C-17.64322743 51.04453299 -19.04036299 51.05363331 -20.4375 51.0625 C-21.14455078 51.07087891 -21.85160156 51.07925781 -22.58007812 51.08789062 C-24.38693559 51.09653588 -26.19387603 51.05220011 -28 51 C-29 50 -29 50 -29.125 47 C-29 44 -29 44 -28 43 C-25.46950598 42.92686433 -22.96695163 42.90752473 -20.4375 42.9375 C-19.72658203 42.94201172 -19.01566406 42.94652344 -18.28320312 42.95117188 C-16.52209987 42.96299136 -14.76103964 42.98092737 -13 43 C-13 40.36 -13 37.72 -13 35 C-14.60681641 35.01740234 -14.60681641 35.01740234 -16.24609375 35.03515625 C-17.64322743 35.04453299 -19.04036299 35.05363331 -20.4375 35.0625 C-21.14455078 35.07087891 -21.85160156 35.07925781 -22.58007812 35.08789062 C-24.38693559 35.09653588 -26.19387603 35.05220011 -28 35 C-29 34 -29 34 -29.1875 31.5625 C-29 29 -29 29 -27 27 C-23.7421875 26.8046875 -23.7421875 26.8046875 -19.875 26.875 C-17.95300781 26.90207031 -17.95300781 26.90207031 -15.9921875 26.9296875 C-14.51105469 26.96449219 -14.51105469 26.96449219 -13 27 C-12.88527344 26.39414062 -12.77054688 25.78828125 -12.65234375 25.1640625 C-11.67285585 21.91474335 -9.44904827 20.26984962 -7 18 C-6.34 17.34 -5.68 16.68 -5 16 C-4.01 16 -3.02 16 -2 16 C-2.02320313 15.01257813 -2.04640625 14.02515625 -2.0703125 13.0078125 C-2.08835937 11.72648438 -2.10640625 10.44515625 -2.125 9.125 C-2.14820313 7.84882812 -2.17140625 6.57265625 -2.1953125 5.2578125 C-2 2 -2 2 0 0 Z M-6 28 C-6.75149107 31.23969307 -6.75149107 31.23969307 -6.64697266 34.82226562 C-6.65573425 35.48796066 -6.66449585 36.1536557 -6.67352295 36.83952332 C-6.69544068 39.0291051 -6.68099477 41.21664952 -6.6640625 43.40625 C-6.66743291 44.93412664 -6.67228741 46.46200067 -6.67855835 47.98986816 C-6.68591922 51.18767901 -6.6752507 54.38479021 -6.65185547 57.58251953 C-6.62336674 61.6752313 -6.63977513 65.76630372 -6.66971779 69.85895538 C-6.68781287 73.01267785 -6.68202292 76.16601361 -6.66907883 79.31974792 C-6.66575085 80.82838639 -6.66981055 82.33706032 -6.68147659 83.84565735 C-6.69422357 85.95729112 -6.67476252 88.0662958 -6.64697266 90.17773438 C-6.64299469 91.37732788 -6.63901672 92.57692139 -6.63491821 93.81286621 C-5.79643402 98.02185133 -4.44179325 99.47997202 -1 102 C2.24014443 102.74491598 2.24014443 102.74491598 5.82226562 102.63110352 C6.48796066 102.63825882 7.1536557 102.64541412 7.83952332 102.65278625 C10.02914101 102.66962692 12.21669747 102.65030202 14.40625 102.62890625 C15.93412444 102.6297354 17.46199879 102.63219651 18.98986816 102.63621521 C22.18769266 102.63906999 25.3848155 102.62440457 28.58251953 102.59692383 C32.67506287 102.5628405 36.766352 102.56886167 40.85895538 102.5875864 C44.01265864 102.59817103 47.16607164 102.58920552 50.31974792 102.57420158 C51.82837562 102.56902997 53.33703376 102.56948918 54.84565735 102.57574654 C56.95700924 102.58121692 59.06658509 102.56077022 61.17773438 102.53344727 C62.97712463 102.5241494 62.97712463 102.5241494 64.81286621 102.5146637 C68.73766416 101.88088076 70.3711663 100.98106188 73 98 C73.76368382 94.77231556 73.76368382 94.77231556 73.6628418 91.09179688 C73.67320969 90.40513443 73.68357758 89.71847198 73.69425964 89.01100159 C73.72131494 86.74630584 73.71167404 84.48354862 73.69921875 82.21875 C73.70512793 80.64220642 73.71237476 79.06566734 73.72090149 77.48913574 C73.73277919 74.18701781 73.72607877 70.88557403 73.70678711 67.58349609 C73.68389323 63.35260504 73.71068313 59.12372131 73.75184917 54.89302826 C73.77742897 51.63810589 73.77484727 48.38366381 73.76395607 45.12867737 C73.76246951 43.56895627 73.77015815 42.00919834 73.78720665 40.4495697 C73.80718472 38.26787697 73.7887976 36.08973238 73.76049805 33.90820312 C73.75786201 32.04766296 73.75786201 32.04766296 73.75517273 30.14953613 C73.26011943 26.78884565 73.26011943 26.78884565 70.38021851 24.60157776 C66.6550448 22.83655714 64.2593408 22.48811485 60.15600586 22.46655273 C59.49991837 22.45793716 58.84383087 22.44932159 58.16786194 22.44044495 C56.01644547 22.41788919 53.86634228 22.42450186 51.71484375 22.43359375 C50.21081661 22.42835448 48.70679276 22.42207689 47.20277405 22.41481018 C44.05812054 22.40442606 40.91392014 22.40893983 37.76928711 22.42358398 C33.7450238 22.44079344 29.72218545 22.41724165 25.69808102 22.38209438 C22.59500216 22.36010949 19.49226398 22.36156389 16.38913155 22.3698597 C14.90559892 22.37067817 13.42204103 22.36383445 11.93858147 22.34908867 C9.86303452 22.33161427 7.79004484 22.34620102 5.71459961 22.36889648 C4.5357872 22.36985825 3.35697479 22.37082001 2.1424408 22.37181091 C-2.03805215 23.20751164 -3.49199004 24.58591827 -6 28 Z " fill="#ECB74F" transform="translate(541,548)"></path>
<path d="M0 0 C0.82450653 -0.00945648 1.64901306 -0.01891296 2.49850464 -0.02865601 C3.38603424 -0.02258331 4.27356384 -0.01651062 5.18798828 -0.01025391 C6.5621843 -0.01455917 6.5621843 -0.01455917 7.96414185 -0.01895142 C9.90253314 -0.02099311 11.84094498 -0.01545591 13.77929688 -0.00292969 C16.74021806 0.01308579 19.69976658 -0.00275577 22.66064453 -0.02197266 C24.54476212 -0.01998952 26.42887886 -0.0161444 28.31298828 -0.01025391 C29.63820999 -0.01936295 29.63820999 -0.01936295 30.99020386 -0.02865601 C35.75905762 0.02562419 39.04458011 0.23934141 42.88330078 3.38818359 C44.91502344 6.43576758 45.13770598 7.07261081 45.17382812 10.50488281 C45.18658783 11.32938934 45.19934753 12.15389587 45.2124939 13.00338745 C45.21471954 13.89091705 45.21694519 14.77844666 45.21923828 15.69287109 C45.22589508 16.60900177 45.23255188 17.52513245 45.2394104 18.46902466 C45.24953623 20.40738924 45.25422744 22.34578868 45.25390625 24.28417969 C45.25827428 27.24521593 45.29457987 30.20475538 45.33251953 33.16552734 C45.33838878 35.04963683 45.34235745 36.9337534 45.34423828 38.81787109 C45.35860931 39.70135223 45.37298035 40.58483337 45.38778687 41.49508667 C45.35697871 45.65479299 45.23676484 47.82458112 42.97949219 51.42382812 C40.15248014 54.07304067 38.64434205 54.51418699 34.88012695 54.56518555 C33.64325386 54.5844384 33.64325386 54.5844384 32.38139343 54.6040802 C31.48870255 54.61146713 30.59601166 54.61885406 29.67626953 54.62646484 C28.75872391 54.63453659 27.84117828 54.64260834 26.89582825 54.65092468 C24.95148612 54.66476852 23.00711966 54.67548933 21.06274414 54.68334961 C18.09295426 54.70055525 15.12427965 54.74443742 12.15478516 54.78857422 C10.26612147 54.79870177 8.37744832 54.80721768 6.48876953 54.81396484 C5.15884224 54.84022697 5.15884224 54.84022697 3.80204773 54.86701965 C-0.26553601 54.85275174 -2.53686939 54.73440676 -6.09204102 52.61157227 C-10.35072505 47.9348768 -10.42458452 44.0565509 -10.41748047 37.86083984 C-10.42176559 37.03490829 -10.42605072 36.20897675 -10.4304657 35.35801697 C-10.43619988 33.61393143 -10.43671598 31.86982198 -10.43237305 30.12573242 C-10.42921437 27.46345036 -10.45267827 24.80228138 -10.47802734 22.14013672 C-10.48030063 20.44287249 -10.4810037 18.74560529 -10.47998047 17.04833984 C-10.48919022 16.25549088 -10.49839996 15.46264191 -10.50788879 14.64576721 C-10.46206809 9.14694954 -9.35234213 6.06061541 -5.76994324 1.77830505 C-3.70404405 0.04120468 -2.67184663 0.00880351 0 0 Z " fill="#0F0E0B" transform="translate(557.11669921875,583.61181640625)"></path>
<path d="M0 0 C0.82450653 -0.00945648 1.64901306 -0.01891296 2.49850464 -0.02865601 C3.38603424 -0.02258331 4.27356384 -0.01651062 5.18798828 -0.01025391 C6.5621843 -0.01455917 6.5621843 -0.01455917 7.96414185 -0.01895142 C9.90253314 -0.02099311 11.84094498 -0.01545591 13.77929688 -0.00292969 C16.74021806 0.01308579 19.69976658 -0.00275577 22.66064453 -0.02197266 C24.54476212 -0.01998952 26.42887886 -0.0161444 28.31298828 -0.01025391 C29.63820999 -0.01936295 29.63820999 -0.01936295 30.99020386 -0.02865601 C35.75905762 0.02562419 39.04458011 0.23934141 42.88330078 3.38818359 C44.91502344 6.43576758 45.13770598 7.07261081 45.17382812 10.50488281 C45.18658783 11.32938934 45.19934753 12.15389587 45.2124939 13.00338745 C45.21471954 13.89091705 45.21694519 14.77844666 45.21923828 15.69287109 C45.22589508 16.60900177 45.23255188 17.52513245 45.2394104 18.46902466 C45.24953623 20.40738924 45.25422744 22.34578868 45.25390625 24.28417969 C45.25827428 27.24521593 45.29457987 30.20475538 45.33251953 33.16552734 C45.33838878 35.04963683 45.34235745 36.9337534 45.34423828 38.81787109 C45.35860931 39.70135223 45.37298035 40.58483337 45.38778687 41.49508667 C45.35697871 45.65479299 45.23676484 47.82458112 42.97949219 51.42382812 C40.15248014 54.07304067 38.64434205 54.51418699 34.88012695 54.56518555 C33.64325386 54.5844384 33.64325386 54.5844384 32.38139343 54.6040802 C31.48870255 54.61146713 30.59601166 54.61885406 29.67626953 54.62646484 C28.75872391 54.63453659 27.84117828 54.64260834 26.89582825 54.65092468 C24.95148612 54.66476852 23.00711966 54.67548933 21.06274414 54.68334961 C18.09295426 54.70055525 15.12427965 54.74443742 12.15478516 54.78857422 C10.26612147 54.79870177 8.37744832 54.80721768 6.48876953 54.81396484 C5.15884224 54.84022697 5.15884224 54.84022697 3.80204773 54.86701965 C-0.26553601 54.85275174 -2.53686939 54.73440676 -6.09204102 52.61157227 C-10.35072505 47.9348768 -10.42458452 44.0565509 -10.41748047 37.86083984 C-10.42176559 37.03490829 -10.42605072 36.20897675 -10.4304657 35.35801697 C-10.43619988 33.61393143 -10.43671598 31.86982198 -10.43237305 30.12573242 C-10.42921437 27.46345036 -10.45267827 24.80228138 -10.47802734 22.14013672 C-10.48030063 20.44287249 -10.4810037 18.74560529 -10.47998047 17.04833984 C-10.48919022 16.25549088 -10.49839996 15.46264191 -10.50788879 14.64576721 C-10.46206809 9.14694954 -9.35234213 6.06061541 -5.76994324 1.77830505 C-3.70404405 0.04120468 -2.67184663 0.00880351 0 0 Z M-2.11669922 9.38818359 C-2.31643655 12.08953682 -2.39651495 14.68615571 -2.38232422 17.38818359 C-2.38423767 18.17966797 -2.38615112 18.97115234 -2.38812256 19.78662109 C-2.3894844 21.46110349 -2.38578804 23.13559644 -2.37744141 24.81005859 C-2.36674162 27.37800741 -2.37733647 29.94525663 -2.39013672 32.51318359 C-2.38881512 34.13818514 -2.38625273 35.76318626 -2.38232422 37.38818359 C-2.38637268 38.15904297 -2.39042114 38.92990234 -2.39459229 39.72412109 C-2.51314633 44.01947796 -2.51314633 44.01947796 -0.11669922 47.38818359 C2.51270274 47.58783732 5.03450241 47.66802469 7.66455078 47.65380859 C8.43383911 47.65572205 9.20312744 47.6576355 9.99572754 47.65960693 C11.62313158 47.66096867 13.25054648 47.65727298 14.87792969 47.64892578 C17.37345709 47.6382258 19.8682646 47.64882111 22.36376953 47.66162109 C23.94319821 47.6602995 25.52262644 47.6577371 27.10205078 47.65380859 C28.22552917 47.65988129 28.22552917 47.65988129 29.3717041 47.66607666 C33.58641226 47.77005561 33.58641226 47.77005561 36.88330078 45.38818359 C37.08303812 42.68683037 37.16311651 40.09021148 37.14892578 37.38818359 C37.15083923 36.59669922 37.15275269 35.80521484 37.15472412 34.98974609 C37.15608596 33.3152637 37.1523896 31.64077074 37.14404297 29.96630859 C37.13334318 27.39835978 37.14393803 24.83111056 37.15673828 22.26318359 C37.15541669 20.63818204 37.15285429 19.01318093 37.14892578 17.38818359 C37.15297424 16.61732422 37.15702271 15.84646484 37.16119385 15.05224609 C37.27974789 10.75688923 37.27974789 10.75688923 34.88330078 7.38818359 C32.25389882 7.18852986 29.73209915 7.1083425 27.10205078 7.12255859 C25.94811829 7.11968842 25.94811829 7.11968842 24.77087402 7.11676025 C23.14346998 7.11539851 21.51605508 7.1190942 19.88867188 7.12744141 C17.39314447 7.13814139 14.89833696 7.12754608 12.40283203 7.11474609 C10.82340335 7.11606769 9.24397513 7.11863009 7.66455078 7.12255859 C6.54107239 7.1164859 6.54107239 7.1164859 5.39489746 7.11029053 C1.1801893 7.00631157 1.1801893 7.00631157 -2.11669922 9.38818359 Z " fill="#EDB84F" transform="translate(557.11669921875,583.61181640625)"></path>
<path d="M0 0 C1.20462891 -0.02126953 1.20462891 -0.02126953 2.43359375 -0.04296875 C4.5625 0.1875 4.5625 0.1875 6.5625 2.1875 C6.00694444 6.74305556 6.00694444 6.74305556 4.5625 8.1875 C-1.89903846 8.54647436 -1.89903846 8.54647436 -5.4375 6.1875 C-5.6875 3.625 -5.6875 3.625 -5.4375 1.1875 C-3.84855928 -0.40144072 -2.18948576 0.01751589 0 0 Z " fill="#E7B245" transform="translate(580.4375,614.8125)"></path>
<path d="M0 0 C0.721875 0.00257813 1.44375 0.00515625 2.1875 0.0078125 C2.909375 0.00523437 3.63125 0.00265625 4.375 0 C6.1875 0.1328125 6.1875 0.1328125 7.1875 1.1328125 C7.3125 4.1328125 7.3125 4.1328125 7.1875 7.1328125 C6.1875 8.1328125 6.1875 8.1328125 4.375 8.265625 C3.653125 8.26304687 2.93125 8.26046875 2.1875 8.2578125 C1.465625 8.26039063 0.74375 8.26296875 0 8.265625 C-1.8125 8.1328125 -1.8125 8.1328125 -2.8125 7.1328125 C-2.9375 4.1328125 -2.9375 4.1328125 -2.8125 1.1328125 C-1.8125 0.1328125 -1.8125 0.1328125 0 0 Z " fill="#EFB74A" transform="translate(566.8125,598.8671875)"></path>
<path d="M0 0 C2.14576637 -0.02685938 4.29162645 -0.04633088 6.4375 -0.0625 C7.63246094 -0.07410156 8.82742188 -0.08570313 10.05859375 -0.09765625 C13 0 13 0 14 1 C14.125 4.5 14.125 4.5 14 8 C13 9 13 9 10.05859375 9.09765625 C8.26615234 9.08025391 8.26615234 9.08025391 6.4375 9.0625 C4.64119141 9.04896484 4.64119141 9.04896484 2.80859375 9.03515625 C1.88175781 9.02355469 0.95492187 9.01195312 0 9 C0 8.67 0 8.34 0 8 C3.96 8 7.92 8 12 8 C12 6.02 12 4.04 12 2 C8.04 2 4.08 2 0 2 C0 1.34 0 0.68 0 0 Z " fill="#41331A" transform="translate(514,614)"></path>
<path d="M0 0 C-1.45383375 3.36716935 -3.30961491 5.52270045 -5.9375 8.0625 C-6.62714844 8.73410156 -7.31679688 9.40570312 -8.02734375 10.09765625 C-9.00380859 11.03931641 -9.00380859 11.03931641 -10 12 C-11.00222965 12.99776537 -12.00312987 13.9968799 -13 15 C-13.66 14.67 -14.32 14.34 -15 14 C-2.98984772 0 -2.98984772 0 0 0 Z " fill="#1C1610" transform="translate(509,539)"></path>
<path d="M0 0 C-0.875 4.875 -0.875 4.875 -2 6 C-3.66617115 6.04063832 -5.33388095 6.042721 -7 6 C-7 4 -7 2 -7 0 C-2.25 -1.125 -2.25 -1.125 0 0 Z " fill="#EAB245" transform="translate(638,577)"></path>
<path d="M0 0 C6.15234375 -0.09765625 6.15234375 -0.09765625 8 0 C9 1 9 1 9.125 4 C9 7 9 7 8 8 C5.32941149 8.14115161 2.67567762 8.04247107 0 8 C0 7.67 0 7.34 0 7 C2.31 7 4.62 7 7 7 C7 5.35 7 3.7 7 2 C4.69 2 2.38 2 0 2 C0 1.34 0 0.68 0 0 Z " fill="#E1AE4F" transform="translate(565,599)"></path>
<path d="M0 0 C2.625 0.375 2.625 0.375 5 1 C4.67 1.66 4.34 2.32 4 3 C3.01 3 2.02 3 1 3 C1 4.98 1 6.96 1 9 C0.67 9 0.34 9 0 9 C-0.33 10.98 -0.66 12.96 -1 15 C-1.33 15 -1.66 15 -2 15 C-2.05386629 12.87527424 -2.09273071 10.75016348 -2.125 8.625 C-2.14820313 7.44164062 -2.17140625 6.25828125 -2.1953125 5.0390625 C-2 2 -2 2 0 0 Z " fill="#BC913F" transform="translate(557,548)"></path>
<path d="M0 0 C2.14576637 -0.02685938 4.29162645 -0.04633088 6.4375 -0.0625 C7.63246094 -0.07410156 8.82742188 -0.08570313 10.05859375 -0.09765625 C13 0 13 0 14 1 C14.04092937 3.33297433 14.04241723 5.66705225 14 8 C13.34 7.34 12.68 6.68 12 6 C12 4.68 12 3.36 12 2 C10.4221875 2.0309375 10.4221875 2.0309375 8.8125 2.0625 C5.67295096 2.01103198 3.03116604 1.73482813 0 1 C0 0.67 0 0.34 0 0 Z " fill="#403218" transform="translate(514,630)"></path>
<path d="M0 0 C2.125 0.375 2.125 0.375 4 1 C4 1.99 4 2.98 4 4 C2.68 4 1.36 4 0 4 C-0.33 7.96 -0.66 11.92 -1 16 C-1.33 16 -1.66 16 -2 16 C-2.05384521 13.70858714 -2.09272087 11.41681812 -2.125 9.125 C-2.14820313 7.84882812 -2.17140625 6.57265625 -2.1953125 5.2578125 C-2 2 -2 2 0 0 Z " fill="#BC9141" transform="translate(541,548)"></path>
<path d="M0 0 C2.64 0 5.28 0 8 0 C8 4.62 8 9.24 8 14 C7.67 14 7.34 14 7 14 C7 9.71 7 5.42 7 1 C6.01 1 5.02 1 4 1 C3.34 2.32 2.68 3.64 2 5 C0 1.125 0 1.125 0 0 Z " fill="#40321C" transform="translate(595,658)"></path>
<path d="M0 0 C0.33 0.66 0.66 1.32 1 2 C1.66 2 2.32 2 3 2 C3 2.99 3 3.98 3 5 C5.31 5 7.62 5 10 5 C10 5.66 10 6.32 10 7 C3.375 7.25 3.375 7.25 0 5 C-0.1875 2.375 -0.1875 2.375 0 0 Z " fill="#D3A948" transform="translate(575,616)"></path>
<path d="M0 0 C-1.28299758 2.86207152 -2.530636 5.0245088 -5 7 C-5.99 7 -6.98 7 -8 7 C-6.13932792 2.84926997 -4.83061881 0 0 0 Z " fill="#E7B24B" transform="translate(556,584)"></path>
<path d="M0 0 C2.97 0 5.94 0 9 0 C8.67 0.66 8.34 1.32 8 2 C6.68 1.67 5.36 1.34 4 1 C3.34 2.32 2.68 3.64 2 5 C2 4.34 2 3.68 2 3 C1.34 3 0.68 3 0 3 C0 2.01 0 1.02 0 0 Z " fill="#F5C558" transform="translate(576,615)"></path>
<path d="M0 0 C3.36591866 1.44253657 5.51047079 3.33264727 8 6 C7.67 6.66 7.34 7.32 7 8 C5.8274869 7.04882866 4.66212985 6.08882991 3.5 5.125 C2.8503125 4.59132813 2.200625 4.05765625 1.53125 3.5078125 C1.0259375 3.01023437 0.520625 2.51265625 0 2 C0 1.34 0 0.68 0 0 Z " fill="#1E150A" transform="translate(641,533)"></path>
<path d="M0 0 C0.66 0.33 1.32 0.66 2 1 C0.35 2.65 -1.3 4.3 -3 6 C-3.66 5.34 -4.32 4.68 -5 4 C-3.35 2.68 -1.7 1.36 0 0 Z " fill="#1B160E" transform="translate(515,533)"></path>
</svg>